<svg width="72" height="72" viewBox="0 0 24 24" fill="none" xmlns="http://www.w3.org/2000/svg"><rect width="24" height="24" fill="none" rx="8" ry="8"></rect><path fill-rule="evenodd" clip-rule="evenodd" d="M12.2041 3H11.9463C7.05225 3 2.81873 6.61151 2.02728 11.508C2.02444 11.5194 2.02028 11.5301 2.01612 11.5408C2.00991 11.5568 2.00371 11.5727 2.00195 11.5908C2.00141 11.5965 2.00245 11.6018 2.00351 11.6071L2.00351 11.6071C2.00445 11.6119 2.00539 11.6167 2.00519 11.6218C2.00452 11.6263 2.00356 11.6307 2.00259 11.6351C2.00163 11.6395 2.00067 11.6439 2 11.6484L2.00098 19.0312C2.00098 20.2783 3.01465 21.3105 4.26074 21.333L19.5498 21.6172C19.5645 21.6182 19.5791 21.6182 19.5928 21.6182C20.2002 21.6182 20.7705 21.3848 21.2051 20.958C21.6504 20.5215 21.8945 19.9375 21.8945 19.3145V13.209L12.2041 3ZM11.6924 4.20312L19.7549 12.6968L3.315 11.1141C4.18951 7.21332 7.66144 4.32001 11.6924 4.20312ZM20.3643 20.1016C20.1514 20.3115 19.8906 20.4062 19.5713 20.418L4.28223 20.1338C3.68555 20.123 3.2002 19.6279 3.2002 19.0312L3.19391 12.3088L20.6953 13.9937V19.3145C20.6953 19.6133 20.5771 19.8926 20.3643 20.1016ZM6.59766 14.0625C5.35352 14.0625 4.3418 15.0742 4.3418 16.3184C4.3418 17.5615 5.35352 18.5732 6.59766 18.5732C7.84082 18.5732 8.85254 17.5615 8.85254 16.3184C8.85254 15.0742 7.84082 14.0625 6.59766 14.0625ZM6.59766 17.5732C5.90527 17.5732 5.3418 17.0107 5.3418 16.3184C5.3418 15.626 5.90527 15.0625 6.59766 15.0625C7.29004 15.0625 7.85254 15.626 7.85254 16.3184C7.85254 17.0107 7.29004 17.5732 6.59766 17.5732ZM12.4463 7.49609C12.4463 8.4668 11.6562 9.25684 10.6855 9.25684C9.71484 9.25684 8.9248 8.4668 8.9248 7.49609C8.9248 6.52539 9.71484 5.73535 10.6855 5.73535C11.6562 5.73535 12.4463 6.52539 12.4463 7.49609ZM11.4463 7.49609C11.4463 7.07617 11.1055 6.73535 10.6855 6.73535C10.2656 6.73535 9.9248 7.07617 9.9248 7.49609C9.9248 7.91602 10.2656 8.25684 10.6855 8.25684C11.1055 8.25684 11.4463 7.91602 11.4463 7.49609ZM12.5466 14.8978C12.2152 14.8978 11.9465 15.1664 11.9465 15.4978C11.9465 15.8292 12.2152 16.0978 12.5466 16.0978C12.8779 16.0978 13.1465 15.8292 13.1465 15.4978C13.1465 15.1664 12.8779 14.8978 12.5466 14.8978ZM7.79755 9.69098C7.79755 10.0223 7.52893 10.291 7.19757 10.291C6.86621 10.291 6.59753 10.0223 6.59753 9.69098C6.59753 9.35962 6.86621 9.091 7.19757 9.091C7.52893 9.091 7.79755 9.35962 7.79755 9.69098ZM15.0805 11.0889C15.4119 11.0889 15.6805 10.8203 15.6805 10.4889C15.6805 10.1575 15.4119 9.88885 15.0805 9.88885C14.7491 9.88885 14.4805 10.1575 14.4805 10.4889C14.4805 10.8203 14.7491 11.0889 15.0805 11.0889ZM15.9873 17.6299C15.9873 16.752 16.7012 16.0381 17.5781 16.0381C18.4561 16.0381 19.1699 16.752 19.1699 17.6299C19.1699 18.5078 18.4561 19.2217 17.5781 19.2217C16.7012 19.2217 15.9873 18.5078 15.9873 17.6299ZM16.9873 17.6299C16.9873 17.9561 17.252 18.2217 17.5781 18.2217C17.9043 18.2217 18.1699 17.9561 18.1699 17.6299C18.1699 17.3037 17.9043 17.0381 17.5781 17.0381C17.252 17.0381 16.9873 17.3037 16.9873 17.6299Z" fill="#221d0c"></path></svg>